<svg width="72" height="72" viewBox="0 0 72 72" fill="none" xmlns="http://www.w3.org/2000/svg">
<g id="Group 562">
<circle id="Ellipse 18" cx="36" cy="36" r="35.5" stroke="white" stroke-opacity="0.2"/>
<path id="Vector" d="M18 28.9211H22.1821V38.3771H18V28.9211ZM24.6137 27.6612C24.6137 27.6612 39.1698 27.1291 46.8035 18.0371C46.8035 18.0371 53.3344 16.4767 52.8354 33.5995C52.8354 33.5995 53.5302 45.3905 46.8641 47.0501C46.8641 47.0501 41.8605 40.5605 24.6164 39.772L24.6137 27.6612ZM27.3236 42.6309C27.3236 42.6309 27.9357 48.1831 32.4376 53.9946C32.4376 53.9946 36.3495 54.1682 36.9395 52.5527C36.9395 52.5527 37.3558 51.4831 36.1097 50.1047C35.7099 49.4706 32.1646 46.4767 31.5857 42.6309H27.3236Z" fill="white" fill-opacity="0.2"/>
</g>
</svg>
