<svg width="10" height="10" viewBox="0 0 10 10" fill="none" xmlns="http://www.w3.org/2000/svg">
<g id="fanhui 1">
<path id="Vector" d="M1.58156 3.83623C1.50496 3.76066 1.46057 3.65839 1.45767 3.55083C1.45477 3.44327 1.4936 3.33875 1.56602 3.25917C1.63844 3.17959 1.73884 3.13111 1.8462 3.12388C1.95355 3.11665 2.05955 3.15124 2.14198 3.22039L2.16865 3.24456L5.02261 6.07623L7.82927 3.24706C7.9027 3.17305 8.0012 3.12926 8.10534 3.12432C8.20947 3.11938 8.31167 3.15366 8.39177 3.22039L8.41865 3.24456C8.49263 3.31801 8.53638 3.41653 8.54128 3.52066C8.54618 3.6248 8.51186 3.72699 8.44511 3.80706L8.42094 3.83394L5.32094 6.95894C5.24749 7.03292 5.14897 7.07667 5.04484 7.08157C4.9407 7.08647 4.83851 7.05215 4.75844 6.98539L4.73156 6.96123L1.58156 3.83623Z" fill="white"/>
</g>
</svg>
