<svg width="15" height="16" viewBox="0 0 15 16" fill="none" xmlns="http://www.w3.org/2000/svg">
<path id="Union" fill-rule="evenodd" clip-rule="evenodd" d="M9.9727 8.23426C5.92748 7.99729 2.04595 10.32 4.13951 11.8334C1.79515 10.4227 2.23472 3.96075 9.9727 3.07846V0.500244L14.9228 5.62449L9.9727 10.8125V8.23426ZM12.6369 9.55342C12.6988 9.4954 12.7827 9.46281 12.8702 9.46281C12.9578 9.46281 13.0417 9.4954 13.1036 9.55342C13.1655 9.61143 13.2002 9.69012 13.2002 9.77217V13.3341C13.2002 13.9085 12.9569 14.4593 12.5236 14.8654C12.0904 15.2715 11.5029 15.4997 10.8902 15.4997H2.31004C1.69738 15.4997 1.10981 15.2715 0.676595 14.8654C0.243379 14.4593 0 13.9085 0 13.3341V5.29077C0 4.71644 0.243379 4.16563 0.676595 3.75951C1.10981 3.3534 1.69738 3.12524 2.31004 3.12524H4.91643C5.00395 3.12524 5.08789 3.15784 5.14978 3.21585C5.21166 3.27387 5.24643 3.35256 5.24643 3.4346C5.24643 3.51665 5.21166 3.59534 5.14978 3.65336C5.08789 3.71137 5.00395 3.74397 4.91643 3.74397H2.31004C1.87243 3.74397 1.45273 3.90693 1.14329 4.19701C0.833854 4.4871 0.660012 4.88053 0.660012 5.29077V13.3341C0.660012 13.7444 0.833854 14.1378 1.14329 14.4279C1.45273 14.718 1.87243 14.8809 2.31004 14.8809H10.8902C11.3278 14.8809 11.7475 14.718 12.0569 14.4279C12.3664 14.1378 12.5402 13.7444 12.5402 13.3341V9.77217C12.5402 9.69012 12.575 9.61143 12.6369 9.55342Z" fill="#1D1C16"/>
</svg>
