<svg width="15" height="16" viewBox="0 0 15 16" fill="none" xmlns="http://www.w3.org/2000/svg">
<path id="Vector" d="M14.8277 0.349278C14.8277 -0.138422 14.3622 -0.0164966 14.2181 0.127596C13.941 0.426867 13.2095 1.03649 11.6466 1.35793C11.4027 1.41335 11.17 1.43552 10.9261 1.43552C10.1724 1.43552 9.54062 1.19167 8.82016 0.903482C7.98885 0.582044 7.0467 0.216269 5.76095 0.216269C5.65011 0.216269 5.53927 0.216269 5.42843 0.227353C4.03183 0.293858 2.82367 0.903482 1.94803 1.35793C1.69093 1.48668 1.43228 1.61231 1.17214 1.73479L1.09455 1.54636L1.08347 1.53527C0.961544 1.24709 0.629022 1.11408 0.340835 1.236C0.207826 1.29142 0.0969857 1.40227 0.0415653 1.54636C-0.0138551 1.67937 -0.0138551 1.84563 0.0415653 1.97864L5.81637 15.6564C5.90504 15.867 6.10456 16 6.33732 16C6.41491 16 6.4925 15.9889 6.559 15.9557C6.84719 15.8337 6.9802 15.5012 6.85827 15.213L4.88531 10.5355C5.14024 10.1144 5.70553 9.40497 6.79177 9.1057C7.13538 9.01703 7.49007 8.96161 7.87801 8.96161C8.62064 8.96161 9.34111 9.12787 10.1059 9.30521C10.8042 9.46039 11.5136 9.62665 12.2119 9.62665C13.2649 9.62665 14.074 9.26088 14.7723 8.48499C14.7945 8.45174 14.8166 8.37415 14.8277 8.30765V0.349278Z" fill="#969696"/>
</svg>
