<svg width="24" height="18" viewBox="0 0 24 18" fill="none" xmlns="http://www.w3.org/2000/svg">
<g id="Group 108">
<path id="Vector" d="M21.962 17.9998H2.03797C0.914319 17.9998 0.00308228 17.0854 0.00308228 15.9618V2.09315C0.00308228 0.969495 0.917397 0.0582581 2.03797 0.0582581H21.959C23.0826 0.0582581 23.9938 0.972573 23.9938 2.09315V15.9649C23.9969 17.0885 23.0826 17.9998 21.962 17.9998ZM2.03797 1.19115C1.54233 1.19115 1.13597 1.59443 1.13597 2.09315V15.9649C1.13597 16.4605 1.53925 16.8669 2.03797 16.8669H21.959C22.4546 16.8669 22.861 16.4636 22.861 15.9649V2.09315C22.861 1.59751 22.4577 1.19115 21.959 1.19115H2.03797Z" fill="#1D1C16"/>
<path id="Vector_2" d="M0.569519 5.75964H23.4274V6.89561H0.569519V5.75964Z" fill="#1D1C16"/>
<path id="Vector_3" d="M12 12.6309C9.82965 12.6309 8.06259 10.8638 8.06259 8.69345C8.06259 7.19422 8.93073 5.82429 10.2545 5.16857V2.97976C9.18009 2.73348 8.34274 1.80993 8.2473 0.673958L8.19805 0.0582581H15.8019L15.7527 0.673958C15.6603 1.80993 14.8199 2.73348 13.7455 2.97976V5.16857C15.0723 5.82737 15.9374 7.1973 15.9374 8.69345C15.9374 10.8638 14.1703 12.6309 12 12.6309ZM9.57721 1.19115C9.83273 1.61906 10.3007 1.90536 10.824 1.90536H11.3905V5.93204L11.021 6.07057C9.93124 6.47693 9.19548 7.53286 9.19548 8.69345C9.19548 10.2389 10.4515 11.4949 11.9969 11.4949C13.5423 11.4949 14.7984 10.2389 14.7984 8.69345C14.7984 7.53286 14.0657 6.47693 12.9728 6.07057L12.6034 5.93204V1.90536H13.1698C13.6932 1.90536 14.1611 1.61906 14.4166 1.19115H9.57721Z" fill="#1D1C16"/>
<path id="Vector_4" d="M10.824 8.69345C10.824 9.00534 10.9479 9.30446 11.1684 9.525C11.389 9.74554 11.6881 9.86944 12 9.86944C12.3119 9.86944 12.611 9.74554 12.8315 9.525C13.0521 9.30446 13.176 9.00534 13.176 8.69345C13.176 8.38156 13.0521 8.08244 12.8315 7.8619C12.611 7.64136 12.3119 7.51746 12 7.51746C11.6881 7.51746 11.389 7.64136 11.1684 7.8619C10.9479 8.08244 10.824 8.38156 10.824 8.69345Z" fill="#1D1C16"/>
<path id="Vector_5" d="M12 10.4359C11.0395 10.4359 10.2545 9.65394 10.2545 8.69037C10.2545 7.72988 11.0364 6.94486 12 6.94486C12.9605 6.94486 13.7455 7.7268 13.7455 8.69037C13.7424 9.65394 12.9605 10.4359 12 10.4359ZM12 8.08391C11.6644 8.08391 11.3905 8.35789 11.3905 8.69345C11.3905 9.02901 11.6644 9.303 12 9.303C12.3356 9.303 12.6095 9.02901 12.6095 8.69345C12.6095 8.35789 12.3356 8.08391 12 8.08391Z" fill="#1D1C16"/>
<path id="Vector_6" d="M0.646485 4.95615C0.618779 4.95615 0.591072 4.95615 0.563366 4.95307L0.00615691 4.94076L0 4.38355V2.09007C0 0.966413 0.914315 0.0551758 2.03489 0.0551758H4.8825L4.89482 0.612385C4.8979 0.646248 4.8979 0.673955 4.8979 0.701661C4.90098 3.04748 2.9923 4.95615 0.646485 4.95615ZM2.03797 1.19114C1.54233 1.19114 1.13597 1.59443 1.13597 2.09314V3.78324C2.46588 3.5739 3.51565 2.52106 3.72807 1.19422H2.03797V1.19114Z" fill="#1D1C16"/>
<path id="Vector_7" d="M23.3504 4.95615C21.0046 4.95615 19.0959 3.04748 19.0959 0.701661C19.0959 0.673955 19.0959 0.646248 19.099 0.618541L19.1113 0.0613332L19.6685 0.0551758H21.962C23.0857 0.0551758 23.9969 0.969491 23.9969 2.09007V4.93768L23.4397 4.94999C23.4058 4.95615 23.3781 4.95615 23.3504 4.95615ZM20.2719 1.19114C20.4813 2.52106 21.5341 3.57083 22.861 3.78324V2.09314C22.861 1.59751 22.4577 1.19114 21.959 1.19114H20.2719Z" fill="#1D1C16"/>
<path id="Vector_8" d="M4.33146 17.9998H2.03797C0.914319 17.9998 0.00308228 17.0854 0.00308228 15.9618V13.1142L0.560291 13.1019C0.594155 13.0988 0.621861 13.0988 0.649568 13.0988C2.99539 13.0988 4.90406 15.0075 4.90406 17.3533C4.90406 17.381 4.90406 17.4087 4.90098 17.4364L4.88867 17.9936L4.33146 17.9998ZM1.13597 14.2748V15.9649C1.13597 16.4605 1.53925 16.8669 2.03797 16.8669H3.72807C3.51565 15.537 2.46588 14.4841 1.13597 14.2748Z" fill="#1D1C16"/>
<path id="Vector_9" d="M21.962 17.9998H19.1144L19.1021 17.4426C19.099 17.4087 19.099 17.381 19.099 17.3533C19.099 15.0075 21.0077 13.0988 23.3535 13.0988C23.3812 13.0988 23.4089 13.0988 23.4366 13.1019L23.9938 13.1142L24 13.6714V15.9649C23.9969 17.0885 23.0826 17.9998 21.962 17.9998ZM20.2719 16.8669H21.962C22.4577 16.8669 22.864 16.4636 22.864 15.9649V14.2748C21.531 14.4872 20.4813 15.537 20.2719 16.8669Z" fill="#1D1C16"/>
<path id="Vector_10" d="M18.8262 8.38683L20.2302 9.79088L18.8262 11.1949L17.4222 9.79088L18.8262 8.38683Z" fill="#1D1C16"/>
<path id="Vector_11" d="M5.02559 8.3861L6.42964 9.79014L5.02559 11.1942L3.62155 9.79014L5.02559 8.3861Z" fill="#1D1C16"/>
</g>
</svg>
