<svg width="50" height="75" viewBox="0 0 50 75" fill="none" xmlns="http://www.w3.org/2000/svg">
<path id="Vector" d="M49.9991 57.2618C49.9656 57.3746 49.9382 57.4892 49.9172 57.6051C49.8721 57.9281 49.6799 58.123 49.4035 58.2651C48.7664 58.593 48.1073 58.5596 47.4356 58.4058C46.315 58.1491 45.2867 57.666 44.2782 57.1314C44.1076 57.0412 43.9383 56.9478 43.765 56.8607C43.5669 56.7637 43.516 56.7962 43.5196 57.0227C43.5322 57.8708 43.579 58.7198 43.5561 59.5665C43.5255 60.7191 43.4512 61.8708 43.376 63.0217C43.353 63.3767 43.2747 63.7285 43.2153 64.0804C43.1639 64.3863 43.1977 64.4445 43.4903 64.536C43.905 64.6651 44.3196 64.7945 44.7325 64.9299C45.5276 65.1902 46.3587 65.1604 47.1758 65.2425C47.4734 65.2723 47.7723 65.2948 48.0695 65.3327C48.1644 65.3474 48.2559 65.379 48.3396 65.4261C48.6867 65.6115 48.7286 65.8231 48.4882 66.1317C48.1915 66.5128 47.7903 66.7411 47.3464 66.8986C46.6599 67.1408 45.9431 67.1733 45.2237 67.1801C44.5233 67.1908 43.8253 67.0967 43.1527 66.9008C42.9956 66.8557 42.955 66.9148 42.9276 67.047C42.7957 67.702 42.6966 68.3669 42.5183 69.0098C42.0861 70.5679 41.6719 72.1356 40.9003 73.5737C40.5401 74.2459 40.0498 74.7593 39.2705 74.9321C38.2075 75.168 37.4134 74.7796 36.7876 73.9198C36.2396 73.1664 35.9236 72.3048 35.5607 71.463C35.1984 70.6172 34.895 69.7473 34.6526 68.8596C34.6346 68.7942 34.5203 68.7143 34.4482 68.7121C33.6694 68.6881 32.8887 68.7062 32.1116 68.6575C31.2071 68.6006 30.3054 68.4896 29.4027 68.3994C29.278 68.3868 29.2023 68.4044 29.1515 68.5469C28.8034 69.5164 28.446 70.4827 28.0863 71.4481C27.8071 72.1978 27.4938 72.9323 26.9495 73.535C26.5137 74.0176 25.9955 74.3817 25.3345 74.4656C24.8082 74.5328 24.3999 74.2802 24.055 73.9031C23.5598 73.3617 23.2721 72.6959 23.0646 72.0084C22.5549 70.3104 22.0457 68.6101 21.6149 66.8913C21.3339 65.7717 21.2097 64.6136 20.9796 63.4804C20.8382 62.7844 20.6366 62.1 20.4452 61.4152C19.977 59.7366 19.8392 58.0246 19.905 56.2905C19.9212 55.8565 19.95 55.4226 19.9851 54.9899C20.0009 54.7991 19.8622 54.8095 19.7546 54.7851C19.2328 54.6773 18.7047 54.5961 18.1878 54.4694C17.305 54.2519 16.427 54.0124 15.55 53.7715C15.302 53.7029 15.0642 53.5955 14.8202 53.5107C14.7752 53.4949 14.7263 53.4938 14.6807 53.5076C14.6654 53.5134 14.6649 53.5874 14.673 53.6271C14.8184 54.3489 14.9584 55.0675 15.1151 55.7844C15.7577 58.7244 16.403 61.6635 17.051 64.6015C17.1595 65.0977 17.3032 65.5863 17.3748 66.0865C17.4517 66.6279 17.25 67.1241 16.9772 67.5816C16.8701 67.762 16.6661 67.7566 16.4928 67.6082C16.1875 67.347 15.9674 67.0217 15.7679 66.6748C15.5428 66.2801 15.4636 65.8723 15.4384 65.4175C15.406 64.8351 15.2903 64.2518 15.157 63.6816C14.7856 62.0901 14.3718 60.5085 14.0035 58.916C13.7001 57.6033 13.4372 56.2815 13.1571 54.9633C12.9861 54.1572 12.7947 53.3546 12.6547 52.5431C12.593 52.1867 12.4607 52.0135 12.0933 51.944C11.3203 51.7974 10.8637 51.2637 10.6256 50.5455C10.3104 49.591 10.3104 48.6544 10.9083 47.7897C11.0015 47.6543 11.1037 47.5118 11.2352 47.4215C11.5863 47.1797 11.6201 46.8752 11.5278 46.4877C11.345 45.7249 11.1915 44.9539 11.0384 44.1843C11.0141 44.0612 11.0555 43.9249 11.0681 43.795C11.0681 43.7806 11.0843 43.7666 11.083 43.7531C11.0632 43.5415 11.083 43.3155 11.0141 43.1215C10.7341 42.3262 10.4185 41.5426 10.1353 40.7491C10.0543 40.5208 10.0516 40.2655 9.99078 40.0273C9.88588 39.6181 9.75307 39.2153 9.65087 38.8065C9.32086 37.4798 9.15023 36.1201 8.84048 34.7889C8.78015 34.5295 8.6712 34.2814 8.58836 34.0265C8.56135 33.943 8.51678 33.851 8.53028 33.7712C8.60817 33.2993 8.4533 32.8689 8.29662 32.4435C8.12194 31.9726 8.06746 31.4881 8.02244 30.9936C7.99903 30.7311 7.89008 30.4771 7.8293 30.2168C7.66857 29.5302 7.51415 28.8423 7.35567 28.1552C7.25212 27.7041 7.14362 27.253 7.04052 26.8019C6.79966 25.7241 6.59346 24.6365 6.31072 23.57C6.12344 22.8649 6.08562 22.1445 5.95821 21.4354C5.8389 20.7767 5.68808 20.1235 5.54266 19.4703C5.37383 18.725 5.18023 17.9852 5.01816 17.2382C4.66519 15.6168 4.32888 13.9901 3.97906 12.3697C3.87101 11.869 3.73955 11.3727 3.62294 10.8738C3.58783 10.724 3.56802 10.5751 3.35957 10.576C3.33528 10.5702 3.31286 10.5583 3.29443 10.5414C3.276 10.5245 3.26216 10.5032 3.25422 10.4795C3.24386 10.286 3.09484 10.2774 2.96383 10.2287C2.74546 10.1554 2.53283 10.066 2.32768 9.96117C2.08574 9.8322 1.89291 9.62699 1.77899 9.37724C1.66507 9.12749 1.63639 8.84711 1.69737 8.5794C1.71854 8.47745 1.79282 8.37775 1.8644 8.29655C2.13723 7.98798 2.41952 7.68709 2.71216 7.36815C2.70705 7.22845 2.69428 7.08915 2.67389 6.95086C2.64913 6.81914 2.62887 6.65538 2.54198 6.57147C2.25024 6.28637 1.93014 6.03013 1.62039 5.76397C1.56951 5.71886 1.49298 5.69315 1.46416 5.63946C1.25526 5.2506 0.871681 5.05572 0.552479 4.78775C0.301259 4.57708 0.0797537 4.34656 0.0144726 3.99063C-0.0282978 3.75695 0.0216761 3.56793 0.191857 3.4529C0.642072 3.14884 0.938313 2.71351 1.27237 2.303C1.42995 2.10992 1.69377 2.00255 1.91348 1.8618C2.01793 1.79504 2.13138 1.74226 2.26915 1.66737C2.18586 1.55775 2.13813 1.45805 2.0598 1.39941C1.67216 1.10934 1.83469 0.507547 2.11698 0.298228C2.35023 0.119173 2.63288 0.0164723 2.92646 0.00409954C3.35912 -0.0139452 3.77557 0.0194375 4.15149 0.27071C4.31762 0.382136 4.42478 0.503487 4.34959 0.715963C4.33986 0.752346 4.33308 0.789459 4.32933 0.826938C4.26405 1.20182 4.26765 1.19505 4.64088 1.28753C4.91641 1.3561 5.2158 1.40121 5.45126 1.54557C5.77722 1.74587 6.0478 2.03458 6.35169 2.27277C6.44894 2.34946 6.5732 2.42164 6.69206 2.43472C7.06168 2.47577 7.54071 3.02118 7.17153 3.4362C6.95858 3.67665 6.74563 3.91664 6.54484 4.16656C6.48811 4.23649 6.43678 4.34701 6.44894 4.43002C6.51782 4.90459 6.2603 5.17436 5.89067 5.38503C5.66557 5.51225 5.60614 5.75946 5.67412 6.01344C5.73398 6.21362 5.75146 6.42413 5.72544 6.63147C5.66016 7.02755 5.78803 7.28243 6.19322 7.34424C6.48451 7.38935 6.70961 7.52468 6.92302 7.70513C7.4088 8.1161 7.36873 8.63443 6.84378 8.98315C6.70871 9.07337 6.59886 9.21818 6.51107 9.35893C6.38501 9.56058 6.2639 9.75276 6.01583 9.81456C5.86771 9.85155 5.83575 9.94674 5.86951 10.0879C5.99692 10.6261 6.12929 11.163 6.23689 11.7052C6.27561 11.8996 6.22743 12.1112 6.25715 12.307C6.34404 12.8907 6.45164 13.4713 6.54844 14.0533C6.71172 15.0328 6.87379 16.0123 7.03467 16.9918C7.08806 17.3375 7.20369 17.6706 7.37593 17.9748C7.511 18.2144 7.57043 18.5031 7.63841 18.7765C7.85361 19.6405 8.06116 20.5061 8.26105 21.3731C8.34434 21.734 8.37271 22.1116 8.46545 22.4711C8.64058 23.1523 8.85534 23.8245 9.03227 24.5039C9.2047 25.1684 9.37534 25.8351 9.49824 26.51C9.59594 27.0446 9.59954 27.5963 9.68193 28.134C9.76882 28.6993 9.89623 29.2591 10.0137 29.8194C10.1736 30.5863 10.3343 31.3496 10.509 32.1115C10.6193 32.5978 10.7561 33.0783 10.8723 33.5632C10.9173 33.759 10.9362 33.9615 10.9785 34.1587C11.0997 34.7185 11.2428 35.2738 11.3468 35.8368C11.5125 36.7323 11.6278 37.6382 11.8119 38.5296C11.9807 39.347 12.2324 40.1464 12.412 40.962C12.679 42.1728 12.9136 43.3908 13.1643 44.6052C13.2049 44.8028 13.2724 44.9959 13.2994 45.1948C13.3332 45.4506 13.3381 45.71 13.3543 45.9676C13.3615 46.0862 13.3593 46.2058 13.3737 46.3235C13.3953 46.504 13.5011 46.6077 13.683 46.6235C14.022 46.6533 14.361 46.697 14.7009 46.7052C16.3028 46.744 17.9045 46.7761 19.5061 46.8017C19.6159 46.8017 19.7262 46.7498 19.8365 46.7223C19.8365 46.6948 19.8365 46.6673 19.8397 46.6398C19.7642 46.5725 19.6853 46.5091 19.6033 46.4498C18.3684 45.641 17.2622 44.6815 16.2312 43.6249C15.1822 42.5495 14.5717 41.2534 14.3034 39.7986C14.1705 39.0456 14.0953 38.2835 14.0783 37.5191C14.0463 36.444 14.2944 35.3988 14.592 34.3743C14.8373 33.5289 15.1511 32.7052 15.4177 31.8647C15.46 31.7099 15.46 31.5464 15.4177 31.3915C15.1619 30.4139 14.8211 29.4567 14.7811 28.4299C14.7549 27.7636 14.66 27.0982 14.6591 26.4319C14.6564 25.1756 14.8297 23.9345 15.0705 22.7012C15.2016 22.0295 15.333 21.3587 15.6522 20.7492C15.7855 20.483 15.9623 20.241 16.1754 20.0333C16.5675 19.6688 17.0519 19.7775 17.5197 19.8637C18.6952 20.0797 19.7217 20.6454 20.7356 21.2405C21.1354 21.4746 21.5185 21.7417 21.9341 21.9433C22.1007 22.0241 22.3339 21.9839 22.5342 21.9668C22.5855 21.9623 22.6562 21.8396 22.6693 21.7638C22.7224 21.3961 22.7755 21.0271 22.7958 20.6567C22.816 20.2958 22.8079 19.9444 23.1731 19.7094C23.2681 19.6489 23.3216 19.4658 23.3302 19.3349C23.3613 18.8554 23.3559 18.3736 23.3829 17.8941C23.3982 17.6193 23.4553 17.3473 23.4806 17.073C23.4896 16.977 23.4882 16.8606 23.4432 16.7821C23.1425 16.2592 23.0614 15.7021 23.1348 15.1102C23.1627 14.8847 23.0938 14.6226 23.1875 14.4367C23.3982 14.0172 23.3477 13.6247 23.2419 13.1997C23.0908 12.6131 22.8874 12.0412 22.6342 11.4909C22.4869 11.1648 22.5302 10.798 22.6666 10.4646C22.7021 10.3767 22.8291 10.3261 22.9079 10.2634C22.7791 9.8935 22.5999 9.53487 22.5369 9.15683C22.4604 8.69579 22.2776 8.28798 22.0714 7.88558C21.8913 7.5319 21.7333 7.16875 21.351 6.94365C21.0359 6.75733 20.9549 6.28276 21.1057 5.9787C21.275 5.63811 21.704 5.41526 22.0538 5.48879C22.2152 5.5153 22.3746 5.55253 22.5311 5.60022C23.0263 5.77525 23.2163 6.31749 22.9335 6.77042C22.816 6.95853 22.6634 7.12545 22.5401 7.2883C22.798 7.89505 23.0596 8.4991 23.3095 9.10811C23.3716 9.25923 23.3941 9.42615 23.4369 9.58584C23.4675 9.70088 23.513 9.77306 23.6593 9.71531C23.7718 9.6702 23.9578 9.70268 24.0042 9.63095C24.0555 9.55111 23.983 9.39276 23.9699 9.27006C23.9524 9.09818 23.9222 8.92541 23.9317 8.75443C23.9349 8.61558 23.9724 8.47968 24.0406 8.3588C24.1374 8.20768 24.141 8.09715 24.0343 7.9528C23.7345 7.5495 23.7516 7.11146 24.0465 6.68967C24.286 6.34727 24.67 6.51869 24.8965 6.77718C25.0595 6.96349 25.0766 7.20033 25.0243 7.43536C24.9483 7.76513 24.8744 8.0949 24.9676 8.43053C24.9937 8.53521 25.0456 8.63167 25.1184 8.71112C25.4939 9.08691 25.8865 9.446 26.2611 9.82313C26.6037 10.1678 27.216 10.1484 27.5185 9.74779C27.6937 9.51547 27.8229 9.24841 27.985 9.00525C28.5207 8.20091 29.0628 7.40063 29.6017 6.59854C29.9318 6.10682 30.2609 5.61465 30.589 5.12203C30.7785 4.83602 30.7583 4.75708 30.4683 4.59242C30.1397 4.40566 29.92 3.94507 29.9902 3.5738C30.0708 3.14974 30.4404 3.04057 30.7628 2.90253C31.0437 2.78163 31.3093 2.86058 31.5128 3.09381C31.6299 3.22914 31.7348 3.37305 31.8388 3.51831C32.022 3.77544 31.9716 4.02672 31.7938 4.25904C31.6878 4.39526 31.5715 4.52301 31.4458 4.64114C31.3143 4.7661 31.2715 4.89241 31.3737 5.05527C31.6781 5.54202 31.9667 6.03915 32.2859 6.51599C32.8842 7.4092 33.4861 8.30061 34.1146 9.17262C34.3613 9.51457 34.6805 9.80418 34.9741 10.1127C35.0583 10.203 35.1416 10.2152 35.255 10.1024C35.7106 9.65125 36.164 9.19021 36.6565 8.77969C36.8988 8.57714 36.9046 8.30061 37.0289 8.06422C37.0326 8.0463 37.0318 8.02773 37.0266 8.01018C37.0214 7.99263 37.012 7.97663 36.9992 7.96362C36.7939 7.79987 36.7858 7.55762 36.7502 7.33206C36.6822 6.89402 36.8825 6.59989 37.3161 6.55072C37.4458 6.53629 37.6227 6.60937 37.7181 6.7032C37.8647 6.85608 37.9852 7.03212 38.0747 7.22424C38.1337 7.34334 38.0747 7.47596 37.9478 7.5495C37.7956 7.63656 37.7929 7.72994 37.8861 7.87881C37.9793 8.02768 38.0473 8.1982 37.8411 8.34617C37.7861 8.38587 37.7717 8.50677 37.7695 8.59113C37.7524 9.25878 37.7408 9.92644 37.7348 10.5941C37.7348 10.7078 37.7726 10.8196 37.7929 10.9351L37.8753 10.9545C37.9496 10.8352 38.0174 10.7118 38.0783 10.5851C38.1589 10.396 38.2611 10.2693 38.4948 10.2896C38.547 10.2941 38.6541 10.1899 38.6582 10.1303C38.7032 9.47487 38.9733 8.89518 39.239 8.31324C39.3448 8.08001 39.4051 7.86212 39.3551 7.59145C39.3211 7.36844 39.2447 7.15404 39.13 6.95989C39.0538 6.83963 39.004 6.70456 38.9837 6.56358C38.9635 6.42259 38.9733 6.27891 39.0125 6.14201C39.1174 5.73239 39.4456 5.62548 39.763 5.56774C40.1047 5.50548 40.4555 5.58668 40.6635 5.92502C40.7452 6.05896 40.7939 6.21056 40.8054 6.36716C40.8168 6.52377 40.7908 6.68086 40.7294 6.82533C40.668 6.9698 40.573 7.09747 40.4524 7.1977C40.3317 7.29793 40.1889 7.36782 40.0359 7.40153C39.98 7.41371 39.9044 7.45927 39.8873 7.50709C39.6968 8.03535 39.519 8.56812 39.3317 9.09773C39.2327 9.37743 39.1332 9.65802 39.013 9.92869C38.9423 10.0879 38.9932 10.1858 39.1084 10.2788C39.6689 10.7276 39.7329 11.3578 39.2732 11.9141C39.2402 11.9649 39.1998 12.0105 39.1534 12.0494C38.7572 12.3029 38.7604 12.7189 38.7032 13.1172C38.6298 13.6418 38.7789 14.1394 38.85 14.651C38.9283 15.2149 38.9369 15.7788 38.6699 16.3201C38.5348 16.5908 38.4579 16.8876 38.3732 17.1773C38.3575 17.2309 38.4277 17.3126 38.4633 17.3771C38.4948 17.4357 38.5623 17.4912 38.5627 17.5481C38.5627 17.8278 38.5335 18.1075 38.5407 18.3867C38.5453 18.5972 38.5726 18.8065 38.6222 19.011C38.7122 19.381 38.8248 19.7455 38.9373 20.1095C38.9549 20.1677 39.0143 20.2178 39.0638 20.2611C39.239 20.4131 39.2322 20.5223 39.0332 20.6536C38.9882 20.6824 38.9472 20.7131 38.9018 20.7384C38.7906 20.8015 38.7883 20.8737 38.8603 20.9757C38.9711 21.1345 39.1165 21.2914 39.1566 21.4719C39.2102 21.7105 39.1903 21.9681 39.1782 22.2189C39.1656 22.4829 39.1246 22.7454 39.0954 23.0165C39.1404 23.0165 39.1705 23.0255 39.1795 23.0165C39.7513 22.3701 40.5234 21.9934 41.2177 21.5157C42.2081 20.8336 43.2733 20.2918 44.4394 19.9688C45.0589 19.7973 45.6878 19.7058 46.1768 20.2318C46.4402 20.5269 46.651 20.8652 46.7999 21.2319C47.1713 22.1134 47.3451 23.0476 47.4383 24C47.5733 25.3727 47.5643 26.7455 47.4734 28.1182C47.3937 29.3204 47.1637 30.4902 46.5649 31.5566C46.5131 31.6384 46.4838 31.7323 46.4798 31.829C46.4759 31.9257 46.4974 32.0218 46.5424 32.1074C47.2803 33.6864 47.6445 35.3659 47.7471 37.09C47.8705 39.1652 47.5319 41.1542 46.3064 42.9095C45.406 44.1997 44.1837 45.0902 42.7907 45.7709C42.7007 45.816 42.6106 45.8647 42.5098 45.9171C42.6372 46.0741 42.7574 46.2062 42.86 46.351C43.1176 46.7119 43.1865 47.1017 43.0356 47.5343C42.8465 48.0757 42.8587 48.0757 43.3296 48.4009C44.5656 49.2498 45.6918 50.249 46.6824 51.3756C46.9683 51.7013 47.2226 52.0523 47.5027 52.3856C47.757 52.6897 48.0429 52.9698 48.2802 53.2852C48.7961 53.9668 49.2972 54.662 49.6052 55.4695C49.7564 55.866 49.8699 56.2765 50 56.6807L49.9991 57.2618Z" fill="white" fill-opacity="0.2"/>
</svg>
