<svg width="15" height="18" viewBox="0 0 15 18" fill="none" xmlns="http://www.w3.org/2000/svg">
<g id="&#232;&#181;&#132;&#230;&#186;&#144; 4 1" clip-path="url(#clip0_2_201)">
<g id="&#229;&#155;&#190;&#229;&#177;&#130; 2">
<g id="&#229;&#155;&#190;&#229;&#177;&#130; 1">
<g id="&#229;&#155;&#190;&#229;&#177;&#130; 1-2">
<path id="Vector" d="M3.87877 10.7901H7.45986V7.22928C8.15149 7.24126 8.82425 7.45678 9.3941 7.84891C9.96395 8.24104 10.4056 8.7924 10.6639 9.4341C10.9222 10.0758 10.9857 10.7794 10.8464 11.4569C10.7072 12.1345 10.3713 12.756 9.88086 13.2438C9.3904 13.7316 8.76707 14.0641 8.08876 14.1997C7.41044 14.3352 6.70721 14.2679 6.06693 14.0061C5.42665 13.7444 4.8777 13.2997 4.48867 12.7277C4.09965 12.1558 3.88779 11.4818 3.87958 10.7901H0.5C0.521851 14.6375 3.6287 17.75 7.45986 17.75C11.3032 17.75 14.4197 14.6156 14.4197 10.7497C14.4233 9.0822 13.8307 7.46837 12.7488 6.1995C11.6669 4.93063 10.1671 4.09033 8.52002 3.83028H14.4197V0.25H3.87877V10.7901Z" fill="url(#paint0_linear_2_201)"/>
</g>
</g>
</g>
</g>
<defs>
<linearGradient id="paint0_linear_2_201" x1="0.5" y1="0.25" x2="14.4197" y2="0.25" gradientUnits="userSpaceOnUse">
<stop stop-color="#3BFDEC"/>
<stop offset="1" stop-color="#EDFD3B"/>
</linearGradient>
<clipPath id="clip0_2_201">
<rect width="13.9197" height="17.5" fill="white" transform="translate(0.5 0.25)"/>
</clipPath>
</defs>
</svg>
