<svg width="32" height="33" viewBox="0 0 32 33" fill="none" xmlns="http://www.w3.org/2000/svg">
<g id="Group 562">
<circle id="Ellipse 18" cx="16" cy="16.4258" r="15.5" stroke="white"/>
<path id="Vector" d="M8 13.2796H9.85872V17.4823H8V13.2796ZM10.9394 12.7197C10.9394 12.7197 17.4088 12.4832 20.8015 8.44226C20.8015 8.44226 23.7042 7.74876 23.4824 15.3589C23.4824 15.3589 23.7912 20.5993 20.8285 21.3369C20.8285 21.3369 18.6046 18.4527 10.9406 18.1022L10.9394 12.7197ZM12.1438 19.3728C12.1438 19.3728 12.4158 21.8405 14.4167 24.4234C14.4167 24.4234 16.1553 24.5006 16.4176 23.7826C16.4176 23.7826 16.6026 23.3071 16.0488 22.6945C15.8711 22.4127 14.2954 21.0821 14.0381 19.3728H12.1438Z" fill="white"/>
</g>
</svg>
