<svg width="32" height="33" viewBox="0 0 32 33" fill="none" xmlns="http://www.w3.org/2000/svg">
<g id="Group 322">
<g id="Group 558">
<circle id="Ellipse 18" cx="16" cy="16.2031" r="15.5" stroke="white"/>
<path id="Vector" d="M23.8277 9.5524C23.8277 9.0647 23.3622 9.18663 23.2181 9.33072C22.941 9.62999 22.2095 10.2396 20.6466 10.5611C20.4027 10.6165 20.17 10.6386 19.9261 10.6386C19.1724 10.6386 18.5406 10.3948 17.8202 10.1066C16.9889 9.78517 16.0467 9.41939 14.761 9.41939C14.6501 9.41939 14.5393 9.41939 14.4284 9.43048C13.0318 9.49698 11.8237 10.1066 10.948 10.5611C10.6909 10.6898 10.4323 10.8154 10.1721 10.9379L10.0946 10.7495L10.0835 10.7384C9.96154 10.4502 9.62902 10.3172 9.34084 10.4391C9.20783 10.4945 9.09699 10.6054 9.04157 10.7495C8.98614 10.8825 8.98614 11.0488 9.04157 11.1818L14.8164 24.8595C14.905 25.0701 15.1046 25.2031 15.3373 25.2031C15.4149 25.2031 15.4925 25.192 15.559 25.1588C15.8472 25.0369 15.9802 24.7043 15.8583 24.4162L13.8853 19.7387C14.1402 19.3175 14.7055 18.6081 15.7918 18.3088C16.1354 18.2202 16.4901 18.1647 16.878 18.1647C17.6206 18.1647 18.3411 18.331 19.1059 18.5083C19.8042 18.6635 20.5136 18.8298 21.2119 18.8298C22.2649 18.8298 23.074 18.464 23.7723 17.6881C23.7945 17.6549 23.8166 17.5773 23.8277 17.5108V9.5524Z" fill="white"/>
</g>
</g>
</svg>
