<svg width="22" height="14" viewBox="0 0 22 14" fill="none" xmlns="http://www.w3.org/2000/svg">
<path id="Union" fill-rule="evenodd" clip-rule="evenodd" d="M1 0C0.447715 0 0 0.447715 0 1C0 1.55228 0.447716 2 1 2H17C17.5523 2 18 1.55228 18 1C18 0.447715 17.5523 0 17 0H1ZM1 6C0.447715 6 0 6.44772 0 7C0 7.55228 0.447716 8 1 8H13C13.5523 8 14 7.55228 14 7C14 6.44772 13.5523 6 13 6H1ZM0 13C0 12.4477 0.447715 12 1 12H17C17.5523 12 18 12.4477 18 13C18 13.5523 17.5523 14 17 14H1C0.447716 14 0 13.5523 0 13ZM20.2426 2.70711C20.6331 2.31658 21.2663 2.31658 21.6568 2.70711C22.0473 3.09763 22.0473 3.7308 21.6568 4.12132L18.8284 6.94975L21.6568 9.77817C22.0473 10.1687 22.0473 10.8019 21.6568 11.1924C21.2663 11.5829 20.6331 11.5829 20.2426 11.1924L16.7078 7.65755L16.7071 7.65685C16.3165 7.26633 16.3165 6.63316 16.7071 6.24264L20.2426 2.70711Z" fill="black"/>
</svg>
