<svg width="15" height="15" viewBox="0 0 15 15" fill="none" xmlns="http://www.w3.org/2000/svg">
<path id="Union" fill-rule="evenodd" clip-rule="evenodd" d="M9.9727 7.73402C5.92748 7.49705 2.04595 9.81973 4.13951 11.3331C1.79515 9.92243 2.23472 3.46051 9.9727 2.57821V0L14.9228 5.12425L9.9727 10.3122V7.73402ZM12.6369 9.05317C12.6988 8.99516 12.7827 8.96256 12.8702 8.96256C12.9578 8.96256 13.0417 8.99516 13.1036 9.05317C13.1655 9.11119 13.2002 9.18988 13.2002 9.27192V12.8339C13.2002 13.4082 12.9569 13.959 12.5236 14.3652C12.0904 14.7713 11.5029 14.9994 10.8902 14.9994H2.31004C1.69738 14.9994 1.10981 14.7713 0.676595 14.3652C0.243379 13.959 0 13.4082 0 12.8339V4.79052C0 4.21619 0.243379 3.66538 0.676595 3.25927C1.10981 2.85315 1.69738 2.625 2.31004 2.625H4.91643C5.00395 2.625 5.08789 2.65759 5.14978 2.71561C5.21166 2.77363 5.24643 2.85231 5.24643 2.93436C5.24643 3.01641 5.21166 3.0951 5.14978 3.15311C5.08789 3.21113 5.00395 3.24372 4.91643 3.24372H2.31004C1.87243 3.24372 1.45273 3.40669 1.14329 3.69677C0.833854 3.98685 0.660012 4.38029 0.660012 4.79052V12.8339C0.660012 13.2441 0.833854 13.6376 1.14329 13.9277C1.45273 14.2177 1.87243 14.3807 2.31004 14.3807H10.8902C11.3278 14.3807 11.7475 14.2177 12.0569 13.9277C12.3664 13.6376 12.5402 13.2441 12.5402 12.8339V9.27192C12.5402 9.18988 12.575 9.11119 12.6369 9.05317Z" fill="#1D1C16"/>
</svg>
