<svg width="18" height="19" viewBox="0 0 18 19" fill="none" xmlns="http://www.w3.org/2000/svg">
<g id="yuyan 1" clip-path="url(#clip0_2_209)">
<path id="Vector" d="M9 0.5C13.9706 0.5 18 4.52937 18 9.5C18 14.4706 13.9706 18.5 9 18.5C4.02937 18.5 0 14.4706 0 9.5C0 4.52937 4.02937 0.5 9 0.5ZM11.9839 10.25H6.01613C6.18188 14.0784 7.59487 17 9 17C10.4047 17 11.8181 14.0784 11.9839 10.25ZM4.51463 10.25L1.53712 10.2504C1.81238 13.0201 3.59438 15.3466 6.05212 16.3985C5.16825 14.8914 4.6095 12.701 4.51463 10.2504V10.25ZM16.4629 10.2504H13.4854C13.3905 12.7014 12.8317 14.8914 11.9479 16.3981C14.4056 15.347 16.1876 13.0201 16.4629 10.2504ZM6.0525 2.60188L5.96925 2.63787C3.55388 3.70587 1.809 6.01138 1.5375 8.75H4.515C4.60988 6.299 5.16863 4.10862 6.0525 2.60188ZM9 2L8.94375 2.0015C7.55775 2.078 6.18 4.973 6.01613 8.75H11.9839C11.8181 4.922 10.4051 2 9 2ZM11.9479 2.6015L12.003 2.69712C12.855 4.20012 13.3924 6.35 13.485 8.75H16.4625C16.1876 5.97988 14.4052 3.65338 11.9475 2.6015H11.9479Z" fill="#070D14"/>
</g>
<defs>
<clipPath id="clip0_2_209">
<rect width="18" height="18" fill="white" transform="translate(0 0.5)"/>
</clipPath>
</defs>
</svg>
